<svg width="40" height="36" viewBox="0 0 40 36" fill="none" xmlns="http://www.w3.org/2000/svg">
<path d="M4 4H10L14 0H26L30 4H36C37.0609 4 38.0783 4.42143 38.8284 5.17157C39.5786 5.92172 40 6.93913 40 8V32C40 33.0609 39.5786 34.0783 38.8284 34.8284C38.0783 35.5786 37.0609 36 36 36H4C2.93913 36 1.92172 35.5786 1.17157 34.8284C0.421427 34.0783 0 33.0609 0 32V8C0 6.93913 0.421427 5.92172 1.17157 5.17157C1.92172 4.42143 2.93913 4 4 4M20 10C17.3478 10 14.8043 11.0536 12.9289 12.9289C11.0536 14.8043 10 17.3478 10 20C10 22.6522 11.0536 25.1957 12.9289 27.0711C14.8043 28.9464 17.3478 30 20 30C22.6522 30 25.1957 28.9464 27.0711 27.0711C28.9464 25.1957 30 22.6522 30 20C30 17.3478 28.9464 14.8043 27.0711 12.9289C25.1957 11.0536 22.6522 10 20 10M20 14C21.5913 14 23.1174 14.6321 24.2426 15.7574C25.3679 16.8826 26 18.4087 26 20C26 21.5913 25.3679 23.1174 24.2426 24.2426C23.1174 25.3679 21.5913 26 20 26C18.4087 26 16.8826 25.3679 15.7574 24.2426C14.6321 23.1174 14 21.5913 14 20C14 18.4087 14.6321 16.8826 15.7574 15.7574C16.8826 14.6321 18.4087 14 20 14V14Z" fill="#808080"/>
</svg>
