<svg width="88" height="90" viewBox="0 0 88 90" fill="none" xmlns="http://www.w3.org/2000/svg">
<g clip-path="url(#clip0_951_1489)">
<path d="M75.4745 44.9357C76.6588 46.017 78.0105 46.8408 79.4265 47.2655C84.2024 48.6943 88.0386 45.206 88 39.4909C87.9614 33.763 84.048 27.9706 79.2721 26.5418C77.856 26.1171 76.5172 26.1299 75.3329 26.5161H75.32C75.0111 26.6191 74.7021 26.7349 74.4189 26.8894L68.433 29.335L68.4587 33.3382V33.9818L68.4973 37.9849L74.5477 44.0347C74.8309 44.3565 75.1398 44.6525 75.4488 44.9357H75.4617H75.4745Z" fill="#BA00FF"/>
<path d="M67.4031 11.3401L52.3288 2.83179L0.347534 27.0824L4.26093 78.5826L19.0134 87.9791C20.6869 89.292 22.7466 90 24.8449 90C26.454 90 28.076 89.5881 29.5693 88.7257L64.1334 68.7743C67.622 67.3841 70.0807 63.9731 70.0807 59.9957V20.9554C70.0807 14.7511 70.866 13.3223 67.416 11.3272L67.4031 11.3401Z" fill="url(#paint0_linear_951_1489)"/>
<path d="M20.6482 38.4998L67.506 11.456L51.183 2.03382C48.2351 -0.283111 44.0513 -0.720754 40.6142 1.27438L6.0373 21.2129C2.56158 22.6159 0.0899613 26.0141 0.0899613 29.9915V69.8942C-0.437833 73.6142 1.27428 77.4371 4.72425 79.4323L20.6482 88.6228V38.4998Z" fill="#BA00FF"/>
<path d="M27.7799 73.6528C28.9643 74.734 30.3159 75.5578 31.732 75.9826C36.5079 77.4113 40.344 73.9231 40.3054 68.208C40.2668 62.48 36.3534 56.6877 31.5775 55.2589C30.1615 54.8341 28.8227 54.847 27.6383 55.2331H27.6255C27.3165 55.3361 27.0076 55.452 26.7244 55.6064L20.7384 58.0521L20.7641 62.0552V62.6988L20.8028 66.702L26.8531 72.7517C27.1363 73.0735 27.4452 73.3696 27.7542 73.6528H27.7671H27.7799Z" fill="url(#paint1_linear_951_1489)"/>
<path d="M26.1451 74.2835C27.3294 75.3647 28.681 76.1885 30.0971 76.6133C34.873 78.0421 38.7091 74.5538 38.6705 68.8387C38.6319 63.1107 34.7185 57.3184 29.9426 55.8896C28.5266 55.4648 27.1878 55.4777 26.0035 55.8639H25.9906C25.6816 55.9669 25.3727 56.0827 25.0895 56.2372L19.1035 58.6828L19.1293 62.686V63.3296L19.1679 67.3327L25.2182 73.3825C25.5014 73.7043 25.8104 74.0003 26.1193 74.2835H26.1322H26.1451Z" fill="#BA00FF"/>
<path d="M77.9204 27.6358C76.5043 27.2111 75.1655 27.2239 73.9812 27.6101H73.9683C73.6594 27.7131 73.3504 27.8289 73.0672 27.9834L69.4885 29.4508V41.4216L73.196 45.1287C73.4792 45.4505 73.7881 45.7465 74.0971 46.0297H74.1099V46.0426C75.2943 47.1238 76.6459 47.9476 78.062 48.3724C82.8379 49.8012 86.674 46.3129 86.6354 40.5978C86.5968 34.8698 82.6834 29.0775 77.9075 27.6487L77.9204 27.6358Z" fill="url(#paint2_linear_951_1489)"/>
<path d="M50.7584 21.1871L49.4711 17.1454C49.4196 16.8622 49.3295 16.5919 49.2136 16.3216V16.3087C48.7759 15.2918 47.9005 14.3522 46.5746 13.6056C42.0948 11.0699 34.2165 11.5075 28.9643 14.5839C23.7121 17.6602 23.0942 22.204 27.5612 24.7269C28.9 25.4863 30.5348 25.9626 32.3113 26.2072H32.3371C32.8134 26.2715 33.2897 26.323 33.7788 26.3487L40.6144 27.0052V28.3696L50.6554 22.3585V21.2644L50.7712 21.2L50.7584 21.1871Z" fill="url(#paint3_linear_951_1489)"/>
<path d="M29.4921 15.7423C34.7443 12.6659 42.6226 12.2283 47.1024 14.764C48.1193 15.3433 48.866 16.0255 49.3551 16.7592C49.3165 16.6305 49.2779 16.4889 49.2264 16.3601V16.3473C48.7887 15.3304 47.9134 14.3908 46.5874 13.6442C42.1076 11.1084 34.2293 11.5461 28.9772 14.6224C24.9479 16.978 23.6477 20.2088 25.2955 22.7317C24.6132 20.4277 26.0421 17.7761 29.5049 15.7552L29.4921 15.7423Z" fill="url(#paint4_linear_951_1489)"/>
</g>
<defs>
<linearGradient id="paint0_linear_951_1489" x1="31.0754" y1="35.4105" x2="52.1714" y2="73.3583" gradientUnits="userSpaceOnUse">
<stop stop-color="#9C00DD"/>
<stop offset="0.64" stop-color="#63008C"/>
</linearGradient>
<linearGradient id="paint1_linear_951_1489" x1="20.7384" y1="65.6079" x2="40.3054" y2="65.6079" gradientUnits="userSpaceOnUse">
<stop stop-color="#FF2AFF"/>
<stop offset="1" stop-color="#6E0094"/>
</linearGradient>
<linearGradient id="paint2_linear_951_1489" x1="84.1123" y1="37.7917" x2="66.9783" y2="38.3968" gradientUnits="userSpaceOnUse">
<stop stop-color="#9C00DD"/>
<stop offset="0.64" stop-color="#63008C"/>
</linearGradient>
<linearGradient id="paint3_linear_951_1489" x1="36.907" y1="16.8364" x2="41.6177" y2="42.516" gradientUnits="userSpaceOnUse">
<stop stop-color="#9C00DD"/>
<stop offset="0.64" stop-color="#63008C"/>
</linearGradient>
<linearGradient id="paint4_linear_951_1489" x1="45.8151" y1="16.8879" x2="20.9959" y2="17.7505" gradientUnits="userSpaceOnUse">
<stop stop-color="#9C00DD"/>
<stop offset="0.64" stop-color="#63008C"/>
</linearGradient>
<clipPath id="clip0_951_1489">
<rect width="88" height="90" fill="white"/>
</clipPath>
</defs>
</svg>
