<svg width="208" height="167" viewBox="0 0 208 167" fill="none" xmlns="http://www.w3.org/2000/svg">
<path d="M20.0736 37.7843L65.9564 11.266L50.0454 2.01541C47.2086 -0.204729 43.015 -0.698101 39.6848 1.27535L5.88937 20.7632C2.43583 22.12 0.0923531 25.4502 0.0923531 29.3971V68.4962C-0.401011 72.0731 1.20242 75.8966 4.65596 77.8701L20.1969 86.874V37.7843H20.0736Z" fill="#BA00FF"/>
<path d="M83.718 21.627L65.8335 11.3896L19.9507 37.908V86.9977L38.2052 97.4816C39.8086 98.7151 41.9054 99.4551 43.8788 99.4551C45.4823 99.4551 47.0857 99.0851 48.4425 98.2217L82.2379 78.7338C85.6914 77.3771 88.0349 74.0469 88.0349 70.1V31.1242C88.7749 27.3006 87.0482 23.4771 83.718 21.627Z" fill="#00FFB0"/>
<path d="M47.9485 16.0764C47.4551 15.0897 46.7151 14.2263 45.3583 13.4863C41.0414 11.0194 33.2709 11.3895 28.0906 14.473C22.9103 17.4332 22.2936 21.8735 26.7338 24.3403C28.0906 25.0803 29.694 25.5737 31.4208 25.8204C31.9142 25.8204 32.4075 25.9437 32.7775 25.9437L42.1515 26.8071L45.7283 24.7103L46.3451 24.3403L49.9219 22.2435L48.1952 16.9398C48.1952 16.5698 48.0718 16.3231 47.9485 16.0764Z" fill="#00FFB0"/>
<path d="M25.3785 72.6898C26.4885 73.7998 27.8453 74.5399 29.202 74.9099C33.889 76.2667 37.5892 72.9364 37.5892 67.2628C37.5892 61.7124 33.7657 56.0387 29.0787 54.5586C27.722 54.1886 26.3652 54.1886 25.2551 54.5586C25.0084 54.682 24.6384 54.8053 24.3917 54.9287L18.5947 57.2721V61.2191V61.8358V65.7827L24.5151 71.703C24.7618 72.1964 25.1318 72.4431 25.3785 72.6898Z" fill="#BA00FF"/>
<path d="M154.876 166.462L121.254 148.951C119.851 148.22 119.812 146.226 121.186 145.441L161.236 122.555C161.802 122.232 162.49 122.204 163.08 122.482L198.812 139.297C200.285 139.99 200.357 142.058 198.937 142.852L156.776 166.434C156.188 166.763 155.474 166.773 154.876 166.462Z" fill="#F2F2F2"/>
<path d="M160.54 134.729L126.918 117.218C125.515 116.487 125.476 114.493 126.85 113.707L166.899 90.8219C167.465 90.4984 168.153 90.4711 168.743 90.7487L204.476 107.564C205.948 108.257 206.021 110.325 204.601 111.119L162.44 134.701C161.852 135.03 161.137 135.04 160.54 134.729Z" fill="#00FFB0"/>
<path d="M129.185 112.373L165.924 110.123C166.98 110.059 167.802 109.184 167.802 108.127V91.094" stroke="white" stroke-linecap="round"/>
<path d="M46.0604 97.8774C46.0604 97.8774 46.0606 67.1413 46.0604 63.9889C45.7093 63.4622 47.0538 62.3098 49.2127 60.8365C58.6699 55.3198 75.2203 46.6506 75.2203 46.6506L75.2203 82.9034C65.763 88.1574 55.5177 94.725 52.3653 96.3012C49.5457 97.711 47.1112 98.1401 46.0604 97.8774Z" fill="url(#paint0_linear_941_3060)"/>
<path d="M136.111 116.578L47.0041 65.2193C45.6707 64.4508 45.6687 62.5271 47.0006 61.7558L75.5259 45.2363C76.1507 44.8745 76.922 44.8775 77.544 45.2442L165.583 97.1525C166.9 97.9289 166.894 99.8356 165.573 100.604L138.116 116.574C137.497 116.934 136.732 116.936 136.111 116.578Z" fill="url(#paint1_linear_941_3060)"/>
<defs>
<linearGradient id="paint0_linear_941_3060" x1="50.0024" y1="64.6879" x2="68.5024" y2="89.1879" gradientUnits="userSpaceOnUse">
<stop stop-color="#3DE7AE" stop-opacity="0.78"/>
<stop offset="1" stop-color="#00FFB0" stop-opacity="0"/>
</linearGradient>
<linearGradient id="paint1_linear_941_3060" x1="80.4636" y1="49.7888" x2="130.255" y2="106.58" gradientUnits="userSpaceOnUse">
<stop stop-color="#00FFB0" stop-opacity="0.65"/>
<stop offset="1" stop-color="#00FFB0" stop-opacity="0"/>
</linearGradient>
</defs>
</svg>
