<svg width="234" height="80" viewBox="0 0 234 80" fill="none" xmlns="http://www.w3.org/2000/svg">
<path d="M71.4583 71.8558H73.3704V78.8942H75.8115V71.8558H78.1712V69.7788H75.8115V67.6635C75.8115 66.5288 76.6048 66.2788 77.0727 66.2788C77.683 66.2788 78.0491 66.5481 78.0491 66.5481L78.9645 64.6058C78.9645 64.6058 78.1712 64.125 76.8286 64.125C75.2623 64.125 73.3704 65.0096 73.3704 67.5481V69.7788H71.4583V71.8558Z" fill="black"/>
<path d="M84.1594 69.5481C81.2912 69.5481 79.0128 71.6442 79.0128 74.3365C79.0128 77.0096 81.2912 79.125 84.1594 79.125C87.0277 79.125 89.306 77.0096 89.306 74.3365C89.306 71.6442 87.0277 69.5481 84.1594 69.5481ZM84.1594 76.9712C82.5117 76.9712 81.4946 75.7596 81.4946 74.3365C81.4946 72.9135 82.5117 71.7019 84.1594 71.7019C85.8072 71.7019 86.8243 72.9135 86.8243 74.3365C86.8243 75.7596 85.8072 76.9712 84.1594 76.9712Z" fill="black"/>
<path d="M96.0296 69.5481C94.2395 69.5481 93.4055 71.1058 93.4055 71.1058V69.7788H91.0864V78.8942H93.5275V72.9327C93.5275 72.9327 94.1988 71.7019 95.6838 71.7019C96.3958 71.7019 96.8433 71.9135 96.8433 71.9135L97.6977 69.8365C97.6977 69.8365 96.9043 69.5481 96.0296 69.5481Z" fill="black"/>
<path d="M103.834 78.8942H106.296L107.598 75.7019H113.619L114.921 78.8942H117.382L111.849 65.4327H109.367L103.834 78.8942ZM110.608 68.3365L112.744 73.5865H108.472L110.608 68.3365Z" fill="black"/>
<path d="M127.934 64.3558H125.493V70.7404C125.493 70.7404 124.598 69.5481 122.767 69.5481C120.265 69.5481 118.068 71.5288 118.068 74.3365C118.068 77.1442 120.265 79.125 122.767 79.125C124.842 79.125 125.676 77.7019 125.676 77.7019V78.8942H127.934V64.3558ZM125.493 75.7019C125.493 75.7019 124.802 76.9712 123.195 76.9712C121.547 76.9712 120.55 75.8365 120.55 74.3365C120.55 72.8365 121.547 71.7019 123.195 71.7019C124.802 71.7019 125.493 72.9712 125.493 72.9712V75.7019Z" fill="black"/>
<path d="M141.847 69.5481C139.589 69.5481 138.775 71.1442 138.775 71.1442C138.775 71.1442 138.104 69.5481 135.785 69.5481C133.811 69.5481 132.937 71.1058 132.937 71.1058V69.7788H130.658V78.8942H133.1V72.875C133.1 72.875 133.71 71.7019 134.991 71.7019C136.212 71.7019 136.72 72.375 136.72 73.625V78.8942H139.161V72.875C139.161 72.875 139.772 71.7019 141.053 71.7019C142.274 71.7019 142.782 72.375 142.782 73.625V78.8942H145.223V73.0288C145.223 70.8365 143.8 69.5481 141.847 69.5481Z" fill="black"/>
<path d="M148.05 78.8942H150.491V69.7788H148.05V78.8942ZM147.663 66.8365C147.663 67.6827 148.375 68.3558 149.27 68.3558C150.165 68.3558 150.877 67.6827 150.877 66.8365C150.877 65.9904 150.165 65.3173 149.27 65.3173C148.375 65.3173 147.663 65.9904 147.663 66.8365Z" fill="black"/>
<path d="M158.492 69.5481C156.458 69.5481 155.603 71.1058 155.603 71.1058V69.7788H153.325V78.8942H155.766V72.875C155.766 72.875 156.417 71.7019 157.678 71.7019C158.736 71.7019 159.59 72.2596 159.59 73.5673V78.8942H162.031V72.9904C162.031 70.7981 160.363 69.5481 158.492 69.5481Z" fill="black"/>
<path d="M164.856 78.8942H167.297V69.7788H164.856V78.8942ZM164.469 66.8365C164.469 67.6827 165.181 68.3558 166.076 68.3558C166.972 68.3558 167.684 67.6827 167.684 66.8365C167.684 65.9904 166.972 65.3173 166.076 65.3173C165.181 65.3173 164.469 65.9904 164.469 66.8365Z" fill="black"/>
<path d="M169.521 77.4712C169.521 77.4712 171.047 79.125 173.874 79.125C176.336 79.125 178.085 77.875 178.085 76.3173C178.085 74.4327 176.722 73.8365 174.81 73.4519C173.182 73.125 172.532 72.9904 172.532 72.4327C172.532 71.875 173.366 71.5673 174.281 71.5673C175.583 71.5673 176.681 72.3558 176.681 72.3558L177.902 70.6635C177.902 70.6635 176.458 69.5481 174.281 69.5481C171.636 69.5481 170.131 70.9712 170.131 72.3942C170.131 74.125 171.799 74.8942 173.711 75.2788C175.176 75.5673 175.624 75.6827 175.624 76.2788C175.624 76.8365 174.789 77.1058 173.793 77.1058C172.165 77.1058 170.884 75.7981 170.884 75.7981L169.521 77.4712Z" fill="black"/>
<path d="M179.192 71.8558H181.083V75.8942C181.083 77.8365 182.507 79.125 184.379 79.125C185.782 79.125 186.698 78.5288 186.698 78.5288L185.803 76.6442C185.803 76.6442 185.335 76.9712 184.786 76.9712C184.135 76.9712 183.524 76.6442 183.524 75.5288V71.8558H186.433V69.7788H183.524V67.0673H181.083V69.7788H179.192V71.8558Z" fill="black"/>
<path d="M193.37 69.5481C191.58 69.5481 190.746 71.1058 190.746 71.1058V69.7788H188.427V78.8942H190.868V72.9327C190.868 72.9327 191.54 71.7019 193.025 71.7019C193.737 71.7019 194.184 71.9135 194.184 71.9135L195.038 69.8365C195.038 69.8365 194.245 69.5481 193.37 69.5481Z" fill="black"/>
<path d="M199.839 77.2019C199.087 77.2019 198.09 76.9904 198.09 76.0288C198.09 75.0481 199.127 74.7404 199.88 74.7404C201.202 74.7404 202.077 75.2019 202.077 75.2019V76.1442C202.077 76.1442 201.304 77.2019 199.839 77.2019ZM200.124 69.5481C198.11 69.5481 196.32 70.375 196.32 70.375L197.113 72.2788C197.113 72.2788 198.598 71.6058 200.002 71.6058C200.856 71.6058 202.077 71.9904 202.077 73.1827V73.7019C202.077 73.7019 201.161 73.0481 199.392 73.0481C197.296 73.0481 195.608 74.3173 195.608 76.0673C195.608 78.0096 197.276 79.125 199.087 79.125C201.263 79.125 202.26 77.7404 202.26 77.7404V78.8942H204.518V72.9519C204.518 70.875 202.891 69.5481 200.124 69.5481Z" fill="black"/>
<path d="M206.189 71.8558H208.081V75.8942C208.081 77.8365 209.504 79.125 211.376 79.125C212.78 79.125 213.695 78.5288 213.695 78.5288L212.8 76.6442C212.8 76.6442 212.332 76.9712 211.783 76.9712C211.132 76.9712 210.522 76.6442 210.522 75.5288V71.8558H213.431V69.7788H210.522V67.0673H208.081V69.7788H206.189V71.8558Z" fill="black"/>
<path d="M219.92 69.5481C217.052 69.5481 214.773 71.6442 214.773 74.3365C214.773 77.0096 217.052 79.125 219.92 79.125C222.788 79.125 225.067 77.0096 225.067 74.3365C225.067 71.6442 222.788 69.5481 219.92 69.5481ZM219.92 76.9712C218.272 76.9712 217.255 75.7596 217.255 74.3365C217.255 72.9135 218.272 71.7019 219.92 71.7019C221.568 71.7019 222.585 72.9135 222.585 74.3365C222.585 75.7596 221.568 76.9712 219.92 76.9712Z" fill="black"/>
<path d="M231.79 69.5481C230 69.5481 229.166 71.1058 229.166 71.1058V69.7788H226.847V78.8942H229.288V72.9327C229.288 72.9327 229.959 71.7019 231.444 71.7019C232.156 71.7019 232.604 71.9135 232.604 71.9135L233.458 69.8365C233.458 69.8365 232.665 69.5481 231.79 69.5481Z" fill="black"/>
<path d="M70.1359 45.872H87.7453V41.0234H75.1912V16.0998H70.1359V45.872Z" fill="black"/>
<path d="M97.9402 46.3824C102.027 46.3824 103.922 42.9373 103.922 42.9373V45.872H108.641V25.712H103.585V39.152C103.585 39.152 102.237 41.6189 99.6253 41.6189C97.0555 41.6189 95.6653 40.3429 95.6653 37.3657V25.712H90.61V38.7692C90.61 43.6179 94.1066 46.3824 97.9402 46.3824Z" fill="black"/>
<path d="M124.39 25.2016C120.177 25.2016 118.408 28.6467 118.408 28.6467V25.712H113.69V45.872H118.745V32.5596C118.745 32.5596 120.093 29.9652 122.705 29.9652C124.896 29.9652 126.665 31.1986 126.665 34.0907V45.872H131.72V32.8148C131.72 27.9662 128.266 25.2016 124.39 25.2016Z" fill="black"/>
<path d="M146.164 41.6189C142.752 41.6189 140.561 38.9394 140.561 35.792C140.561 32.6447 142.752 29.9652 146.164 29.9652C149.197 29.9652 150.84 32.0917 150.84 32.0917L154.337 28.9444C154.337 28.9444 151.514 25.2016 146.164 25.2016C140.182 25.2016 135.421 29.8376 135.421 35.792C135.421 41.7039 140.182 46.3824 146.164 46.3824C151.556 46.3824 154.421 42.5546 154.421 42.5546L151.093 39.152C151.093 39.152 149.576 41.6189 146.164 41.6189Z" fill="black"/>
<path d="M169 25.2016C165.124 25.2016 163.355 28.1363 163.355 28.1363V13.718H158.3V45.872H163.355V32.6021C163.355 32.6021 164.703 29.9652 167.315 29.9652C169.506 29.9652 171.275 31.1986 171.275 34.0907V45.872H176.33V32.8148C176.33 27.9662 172.876 25.2016 169 25.2016Z" fill="black"/>
<path d="M191.35 30.3054H187.011V20.9484H191.35C194.804 20.9484 196.616 22.8198 196.616 25.6269C196.616 28.434 194.804 30.3054 191.35 30.3054ZM181.955 45.872H187.011V35.154H191.982C197.837 35.154 201.755 31.071 201.755 25.6269C201.755 20.1828 197.837 16.0998 191.982 16.0998H181.955V45.872Z" fill="black"/>
<path d="M213.063 42.1292C211.504 42.1292 209.44 41.6614 209.44 39.5348C209.44 37.3657 211.588 36.6852 213.147 36.6852C215.885 36.6852 217.697 37.7059 217.697 37.7059V39.79C217.697 39.79 216.096 42.1292 213.063 42.1292ZM213.652 25.2016C209.482 25.2016 205.774 27.0305 205.774 27.0305L207.417 31.2411C207.417 31.2411 210.493 29.7525 213.4 29.7525C215.169 29.7525 217.697 30.6031 217.697 33.2401V34.3885C217.697 34.3885 215.801 32.9424 212.136 32.9424C207.797 32.9424 204.3 35.7495 204.3 39.6199C204.3 43.9156 207.754 46.3824 211.504 46.3824C216.012 46.3824 218.076 43.3201 218.076 43.3201V45.872H222.752V32.7297C222.752 28.1363 219.382 25.2016 213.652 25.2016Z" fill="black"/>
<path d="M228.403 45.872H233.458V13.718H228.403V45.872Z" fill="black"/>
<path d="M13.274 24.8219L42.3836 7.99774L32.2892 2.12886C30.4894 0.72033 27.8288 0.407319 25.716 1.65935L4.27507 14.0231C2.08402 14.8839 0.597242 16.9967 0.597242 19.5007V44.3065C0.284235 46.5758 1.3015 49.0016 3.49255 50.2537L13.3523 55.966V24.8219H13.274Z" fill="#BA00FF"/>
<path d="M53.652 14.5711L42.3055 8.07617L13.1959 24.9003V56.0445L24.7772 62.6959C25.7944 63.4784 27.1247 63.9479 28.3768 63.9479C29.394 63.9479 30.4113 63.7131 31.2721 63.1654L52.713 50.8016C54.9041 49.9408 56.3909 47.828 56.3909 45.324V20.5964C56.8604 18.1706 55.7648 15.7448 53.652 14.5711Z" fill="#00FFB0"/>
<path d="M30.9586 11.0496C30.6456 10.4236 30.1761 9.87586 29.3153 9.40635C26.5765 7.84131 21.6467 8.07607 18.3601 10.0324C15.0735 11.9104 14.6823 14.7275 17.4993 16.2925C18.3601 16.762 19.3774 17.075 20.4729 17.2315C20.7859 17.2315 21.0989 17.3098 21.3337 17.3098L27.2808 17.8575L29.5501 16.5273L29.9414 16.2925L32.2107 14.9622L31.1151 11.5974C31.1151 11.3626 31.0369 11.2061 30.9586 11.0496Z" fill="#00FFB0"/>
<path d="M16.6393 46.9669C17.3436 47.6712 18.2043 48.1407 19.0651 48.3754C22.0387 49.2362 24.3862 47.1234 24.3862 43.5238C24.3862 40.0025 21.9604 36.4029 18.9868 35.4639C18.1261 35.2292 17.2653 35.2292 16.561 35.4639C16.4045 35.5422 16.1698 35.6204 16.0133 35.6987L12.3354 37.1854V39.6895V40.0808V42.5848L16.0915 46.3409C16.248 46.6539 16.4828 46.8104 16.6393 46.9669Z" fill="#BA00FF"/>
</svg>
