<svg width="119" height="34" viewBox="0 0 119 34" fill="none" xmlns="http://www.w3.org/2000/svg">
<path d="M35.5565 23.8772H44.5534V21.4H38.1394V8.66616H35.5565V23.8772Z" fill="black"/>
<path d="M49.7621 24.138C51.8499 24.138 52.8185 22.3778 52.8185 22.3778V23.8772H55.2291V13.5772H52.6463V20.4439C52.6463 20.4439 51.9575 21.7042 50.623 21.7042C49.3101 21.7042 48.5998 21.0523 48.5998 19.5312V13.5772H46.017V20.2483C46.017 22.7255 47.8035 24.138 49.7621 24.138Z" fill="black"/>
<path d="M63.2757 13.3164C61.1234 13.3164 60.2194 15.0765 60.2194 15.0765V13.5772H57.8087V23.8772H60.3916V17.0757C60.3916 17.0757 61.0803 15.7502 62.4148 15.7502C63.534 15.7502 64.438 16.3803 64.438 17.858V23.8772H67.0208V17.2061C67.0208 14.7289 65.2559 13.3164 63.2757 13.3164Z" fill="black"/>
<path d="M74.4002 21.7042C72.6568 21.7042 71.5376 20.3352 71.5376 18.7272C71.5376 17.1192 72.6568 15.7502 74.4002 15.7502C75.9499 15.7502 76.7894 16.8367 76.7894 16.8367L78.5758 15.2286C78.5758 15.2286 77.1337 13.3164 74.4002 13.3164C71.3439 13.3164 68.9117 15.685 68.9117 18.7272C68.9117 21.7477 71.3439 24.138 74.4002 24.138C77.1553 24.138 78.6189 22.1823 78.6189 22.1823L76.9185 20.4439C76.9185 20.4439 76.1437 21.7042 74.4002 21.7042Z" fill="black"/>
<path d="M86.0676 13.3164C84.0874 13.3164 83.1834 14.8158 83.1834 14.8158V7.44928H80.6006V23.8772H83.1834V17.0974C83.1834 17.0974 83.8721 15.7502 85.2066 15.7502C86.3258 15.7502 87.2298 16.3803 87.2298 17.858V23.8772H89.8127V17.2061C89.8127 14.7289 88.0477 13.3164 86.0676 13.3164Z" fill="black"/>
<path d="M97.4863 15.924H95.2694V11.1434H97.4863C99.2513 11.1434 100.177 12.0995 100.177 13.5337C100.177 14.9679 99.2513 15.924 97.4863 15.924ZM92.6866 23.8772H95.2694V18.4012H97.8092C100.801 18.4012 102.803 16.3152 102.803 13.5337C102.803 10.7523 100.801 8.66616 97.8092 8.66616H92.6866V23.8772Z" fill="black"/>
<path d="M108.58 21.965C107.783 21.965 106.729 21.7259 106.729 20.6394C106.729 19.5312 107.826 19.1835 108.623 19.1835C110.022 19.1835 110.947 19.705 110.947 19.705V20.7698C110.947 20.7698 110.129 21.965 108.58 21.965ZM108.881 13.3164C106.75 13.3164 104.856 14.2508 104.856 14.2508L105.696 16.4021C105.696 16.4021 107.267 15.6415 108.752 15.6415C109.656 15.6415 110.947 16.0761 110.947 17.4234V18.0101C110.947 18.0101 109.979 17.2713 108.106 17.2713C105.889 17.2713 104.103 18.7055 104.103 20.6829C104.103 22.8776 105.868 24.138 107.783 24.138C110.086 24.138 111.141 22.5734 111.141 22.5734V23.8772H113.53V17.1626C113.53 14.8158 111.808 13.3164 108.881 13.3164Z" fill="black"/>
<path d="M116.417 23.8772H119V7.44928H116.417V23.8772Z" fill="black"/>
<path d="M6.50509 13.1224L21.3776 4.52674L16.2202 1.52825C15.3007 0.808611 13.9413 0.648689 12.8619 1.28837L1.90741 7.60519C0.787969 8.04497 0.0283527 9.12443 0.0283527 10.4038V23.0774C-0.131567 24.2368 0.38817 25.4762 1.50761 26.1159L6.54507 29.0344V13.1224H6.50509Z" fill="#BA00FF"/>
<path d="M27.1346 7.8851L21.3375 4.56677L6.46503 13.1624V29.0744L12.3821 32.4727C12.9018 32.8725 13.5815 33.1124 14.2211 33.1124C14.7409 33.1124 15.2606 32.9925 15.7004 32.7126L26.6549 26.3958C27.7743 25.956 28.5339 24.8766 28.5339 23.5972V10.9636C28.7738 9.72418 28.2141 8.4848 27.1346 7.8851Z" fill="#00FFB0"/>
<path d="M15.5405 6.08595C15.3806 5.76611 15.1407 5.48625 14.7009 5.24637C13.3016 4.44677 10.7829 4.56671 9.10373 5.56621C7.42458 6.52573 7.22467 7.965 8.66395 8.7646C9.10373 9.00448 9.62347 9.1644 10.1832 9.24436C10.3431 9.24436 10.503 9.28434 10.623 9.28434L13.6614 9.5642L14.8209 8.88454L15.0208 8.7646L16.1802 8.08494L15.6205 6.36581C15.6205 6.24587 15.5805 6.16591 15.5405 6.08595Z" fill="#00FFB0"/>
<path d="M8.22422 24.4367C8.58404 24.7965 9.02382 25.0364 9.4636 25.1564C10.9828 25.5961 12.1822 24.5167 12.1822 22.6776C12.1822 20.8785 10.9429 19.0394 9.42362 18.5597C8.98384 18.4397 8.54406 18.4397 8.18424 18.5597C8.10428 18.5997 7.98434 18.6396 7.90438 18.6796L6.02533 19.4392V20.7186V20.9185V22.1979L7.94436 24.1169C8.02432 24.2768 8.14426 24.3568 8.22422 24.4367Z" fill="#BA00FF"/>
</svg>
