<svg width="159" height="44" viewBox="0 0 159 44" fill="none" xmlns="http://www.w3.org/2000/svg">
<path d="M47.5078 31.4173H59.5288V28.1074H50.9588V11.0933H47.5078V31.4173Z" fill="black"/>
<path d="M66.4884 31.7658C69.278 31.7658 70.5721 29.414 70.5721 29.414V31.4173H73.793V17.6551H70.342V26.8299C70.342 26.8299 69.4217 28.5139 67.6387 28.5139C65.8845 28.5139 64.9354 27.6429 64.9354 25.6105V17.6551H61.4844V26.5686C61.4844 29.8785 63.8714 31.7658 66.4884 31.7658Z" fill="black"/>
<path d="M84.5444 17.3067C81.6686 17.3067 80.4607 19.6585 80.4607 19.6585V17.6551H77.2398V31.4173H80.6908V22.3296C80.6908 22.3296 81.611 20.5585 83.3941 20.5585C84.8895 20.5585 86.0974 21.4005 86.0974 23.3748V31.4173H89.5484V22.5038C89.5484 19.1939 87.1902 17.3067 84.5444 17.3067Z" fill="black"/>
<path d="M99.4083 28.5139C97.0788 28.5139 95.5834 26.6848 95.5834 24.5362C95.5834 22.3877 97.0788 20.5585 99.4083 20.5585C101.479 20.5585 102.6 22.0102 102.6 22.0102L104.987 19.8617C104.987 19.8617 103.061 17.3067 99.4083 17.3067C95.3246 17.3067 92.0749 20.4714 92.0749 24.5362C92.0749 28.572 95.3246 31.7658 99.4083 31.7658C103.089 31.7658 105.045 29.1527 105.045 29.1527L102.773 26.8299C102.773 26.8299 101.738 28.5139 99.4083 28.5139Z" fill="black"/>
<path d="M114.997 17.3067C112.352 17.3067 111.144 19.31 111.144 19.31V9.46741H107.693V31.4173H111.144V22.3586C111.144 22.3586 112.064 20.5585 113.847 20.5585C115.342 20.5585 116.55 21.4005 116.55 23.3748V31.4173H120.001V22.5038C120.001 19.1939 117.643 17.3067 114.997 17.3067Z" fill="black"/>
<path d="M130.254 20.7908H127.292V14.4032H130.254C132.613 14.4032 133.849 15.6807 133.849 17.597C133.849 19.5133 132.613 20.7908 130.254 20.7908ZM123.841 31.4173H127.292V24.1007H130.686C134.683 24.1007 137.358 21.3134 137.358 17.597C137.358 13.8806 134.683 11.0933 130.686 11.0933H123.841V31.4173Z" fill="black"/>
<path d="M145.077 28.8623C144.013 28.8623 142.603 28.5429 142.603 27.0912C142.603 25.6105 144.07 25.1459 145.134 25.1459C147.003 25.1459 148.24 25.8428 148.24 25.8428V27.2654C148.24 27.2654 147.147 28.8623 145.077 28.8623ZM145.479 17.3067C142.632 17.3067 140.101 18.5551 140.101 18.5551L141.223 21.4295C141.223 21.4295 143.322 20.4133 145.307 20.4133C146.515 20.4133 148.24 20.994 148.24 22.7942V23.5781C148.24 23.5781 146.946 22.5909 144.444 22.5909C141.482 22.5909 139.095 24.5072 139.095 27.1493C139.095 30.0818 141.453 31.7658 144.013 31.7658C147.09 31.7658 148.499 29.6753 148.499 29.6753V31.4173H151.691V22.4457C151.691 19.31 149.39 17.3067 145.479 17.3067Z" fill="black"/>
<path d="M155.549 31.4173H159V9.46741H155.549V31.4173Z" fill="black"/>
<path d="M8.69168 17.0475L28.5634 5.56253L21.6724 1.55614C20.4438 0.59461 18.6275 0.380933 17.1852 1.23563L2.54855 9.67575C1.05283 10.2634 0.037883 11.7057 0.037883 13.415V30.3487C-0.175791 31.8978 0.518648 33.5538 2.01437 34.4085L8.74509 38.3081V17.0475H8.69168Z" fill="#BA00FF"/>
<path d="M36.256 10.0497L28.5104 5.61597L8.63867 17.1009V38.3615L16.5446 42.9021C17.2391 43.4363 18.1472 43.7568 19.0019 43.7568C19.6963 43.7568 20.3907 43.5965 20.9783 43.2226L35.615 34.7825C37.1107 34.1949 38.1257 32.7526 38.1257 31.0432V14.1629C38.4462 12.507 37.6983 10.851 36.256 10.0497Z" fill="#00FFB0"/>
<path d="M20.7641 7.64582C20.5504 7.21848 20.2299 6.84454 19.6423 6.52403C17.7727 5.45566 14.4073 5.61592 12.1637 6.95138C9.92014 8.23343 9.65305 10.1565 11.5761 11.2249C12.1637 11.5454 12.8582 11.759 13.606 11.8659C13.8197 11.8659 14.0334 11.9193 14.1936 11.9193L18.2534 12.2932L19.8026 11.3851L20.0697 11.2249L21.6188 10.3167L20.8709 8.01975C20.8709 7.8595 20.8175 7.75266 20.7641 7.64582Z" fill="#00FFB0"/>
<path d="M10.9888 32.1649C11.4696 32.6457 12.0572 32.9662 12.6448 33.1264C14.6747 33.714 16.2772 32.2717 16.2772 29.8145C16.2772 27.4107 14.6213 24.9534 12.5914 24.3124C12.0038 24.1521 11.4161 24.1521 10.9354 24.3124C10.8285 24.3658 10.6683 24.4192 10.5614 24.4726L8.05078 25.4876V27.197V27.4641V29.1735L10.6149 31.7376C10.7217 31.9512 10.882 32.0581 10.9888 32.1649Z" fill="#BA00FF"/>
</svg>
