<svg width="94" height="91" viewBox="0 0 94 91" fill="none" xmlns="http://www.w3.org/2000/svg">
<path d="M0.5 90.7031H10.5272V87.8828H3.37864V73.3854H0.5V90.7031Z" fill="black"/>
<path d="M16.3325 91C18.6594 91 19.7389 88.9961 19.7389 88.9961V90.7031H22.4256V78.9766H19.547V86.7943C19.547 86.7943 18.7793 88.2292 17.292 88.2292C15.8287 88.2292 15.0371 87.487 15.0371 85.7552V78.9766H12.1585V86.5716C12.1585 89.3919 14.1495 91 16.3325 91Z" fill="black"/>
<path d="M31.3938 78.6797C28.9949 78.6797 27.9874 80.6836 27.9874 80.6836V78.9766H25.3007V90.7031H28.1793V82.9596C28.1793 82.9596 28.947 81.4505 30.4343 81.4505C31.6817 81.4505 32.6892 82.168 32.6892 83.8503V90.7031H35.5678V83.1081C35.5678 80.2878 33.6008 78.6797 31.3938 78.6797Z" fill="black"/>
<path d="M43.7924 88.2292C41.8493 88.2292 40.6019 86.6706 40.6019 84.8398C40.6019 83.0091 41.8493 81.4505 43.7924 81.4505C45.5195 81.4505 46.4551 82.6875 46.4551 82.6875L48.4462 80.8568C48.4462 80.8568 46.8389 78.6797 43.7924 78.6797C40.386 78.6797 37.6753 81.3763 37.6753 84.8398C37.6753 88.2786 40.386 91 43.7924 91C46.8629 91 48.4941 88.7734 48.4941 88.7734L46.599 86.7943C46.599 86.7943 45.7354 88.2292 43.7924 88.2292Z" fill="black"/>
<path d="M56.7959 78.6797C54.5889 78.6797 53.5814 80.3867 53.5814 80.3867V72H50.7028V90.7031H53.5814V82.9844C53.5814 82.9844 54.349 81.4505 55.8363 81.4505C57.0838 81.4505 58.0913 82.168 58.0913 83.8503V90.7031H60.9699V83.1081C60.9699 80.2878 59.0028 78.6797 56.7959 78.6797Z" fill="black"/>
<path d="M69.5224 81.6484H67.0516V76.2057H69.5224C71.4895 76.2057 72.521 77.2943 72.521 78.9271C72.521 80.5599 71.4895 81.6484 69.5224 81.6484ZM64.173 90.7031H67.0516V84.4688H69.8823C73.2167 84.4688 75.4476 82.0938 75.4476 78.9271C75.4476 75.7604 73.2167 73.3854 69.8823 73.3854H64.173V90.7031Z" fill="black"/>
<path d="M81.8863 88.526C80.9987 88.526 79.8233 88.2539 79.8233 87.0169C79.8233 85.7552 81.0467 85.3594 81.9343 85.3594C83.4936 85.3594 84.5251 85.9531 84.5251 85.9531V87.1654C84.5251 87.1654 83.6135 88.526 81.8863 88.526ZM82.2222 78.6797C79.8473 78.6797 77.7363 79.7435 77.7363 79.7435L78.6718 82.1927C78.6718 82.1927 80.423 81.3268 82.0782 81.3268C83.0857 81.3268 84.5251 81.8216 84.5251 83.3555V84.0234C84.5251 84.0234 83.4456 83.1823 81.3586 83.1823C78.8877 83.1823 76.8967 84.8151 76.8967 87.0664C76.8967 89.5651 78.8637 91 80.9987 91C83.5655 91 84.741 89.2188 84.741 89.2188V90.7031H87.4037V83.0586C87.4037 80.3867 85.4846 78.6797 82.2222 78.6797Z" fill="black"/>
<path d="M90.6214 90.7031H93.5V72H90.6214V90.7031Z" fill="black"/>
<path d="M31.1685 23.8269L60.1323 7.08706L50.0884 1.24758C48.2976 -0.153895 45.6504 -0.465339 43.5482 0.780417L22.2146 13.0823C20.0345 13.9387 18.5552 16.0409 18.5552 18.5324V43.214C18.2438 45.4719 19.256 47.8855 21.436 49.1313L31.2463 54.815V23.8269H31.1685Z" fill="#BA00FF"/>
<path d="M71.3441 13.6273L60.0544 7.16492L31.0906 23.9048V54.8929L42.6139 61.511C43.626 62.2896 44.9496 62.7568 46.1954 62.7568C47.2076 62.7568 48.2198 62.5232 49.0762 61.9782L70.4098 49.6763C72.5898 48.8199 74.0692 46.7177 74.0692 44.2261V19.6225C74.5363 17.2088 73.4463 14.7952 71.3441 13.6273Z" fill="#00FFB0"/>
<path d="M48.7648 10.1235C48.4533 9.50066 47.9862 8.95564 47.1297 8.48848C44.4046 6.93129 39.4995 7.16487 36.2294 9.11136C32.9593 10.98 32.57 13.7829 35.3729 15.3401C36.2294 15.8073 37.2415 16.1187 38.3316 16.2745C38.643 16.2745 38.9545 16.3523 39.188 16.3523L45.1054 16.8973L47.3633 15.5737L47.7526 15.3401L50.0105 14.0165L48.9205 10.6686C48.9205 10.435 48.8426 10.2793 48.7648 10.1235Z" fill="#00FFB0"/>
<path d="M34.5165 45.8613C35.2172 46.562 36.0736 47.0292 36.9301 47.2628C39.8888 48.1192 42.2246 46.017 42.2246 42.4355C42.2246 38.9318 39.8109 35.3502 36.8523 34.4159C35.9958 34.1823 35.1393 34.1823 34.4386 34.4159C34.2829 34.4938 34.0493 34.5716 33.8936 34.6495L30.2342 36.1288V38.6203V39.0096V41.5011L33.9714 45.2384C34.1272 45.5499 34.3607 45.7056 34.5165 45.8613Z" fill="#BA00FF"/>
</svg>
