<svg width="297" height="44" viewBox="0 0 297 44" fill="none" xmlns="http://www.w3.org/2000/svg">
<path d="M47.5083 31.189H59.5293V27.879H50.9593V10.8649H47.5083V31.189Z" fill="black"/>
<path d="M66.4889 31.5374C69.2784 31.5374 70.5726 29.1856 70.5726 29.1856V31.189H73.7935V17.4267H70.3425V26.6015C70.3425 26.6015 69.4222 28.2855 67.6392 28.2855C65.8849 28.2855 64.9359 27.4145 64.9359 25.3821V17.4267H61.4849V26.3402C61.4849 29.6501 63.8719 31.5374 66.4889 31.5374Z" fill="black"/>
<path d="M84.5449 17.0783C81.6691 17.0783 80.4612 19.4301 80.4612 19.4301V17.4267H77.2403V31.189H80.6913V22.1012C80.6913 22.1012 81.6115 20.3301 83.3946 20.3301C84.89 20.3301 86.0979 21.1721 86.0979 23.1464V31.189H89.5489V22.2754C89.5489 18.9655 87.1907 17.0783 84.5449 17.0783Z" fill="black"/>
<path d="M99.4087 28.2855C97.0793 28.2855 95.5839 26.4564 95.5839 24.3078C95.5839 22.1593 97.0793 20.3301 99.4087 20.3301C101.479 20.3301 102.601 21.7818 102.601 21.7818L104.988 19.6333C104.988 19.6333 103.061 17.0783 99.4087 17.0783C95.325 17.0783 92.0753 20.243 92.0753 24.3078C92.0753 28.3436 95.325 31.5374 99.4087 31.5374C103.09 31.5374 105.045 28.9243 105.045 28.9243L102.773 26.6015C102.773 26.6015 101.738 28.2855 99.4087 28.2855Z" fill="black"/>
<path d="M114.998 17.0783C112.352 17.0783 111.144 19.0816 111.144 19.0816V9.23901H107.693V31.189H111.144V22.1302C111.144 22.1302 112.064 20.3301 113.848 20.3301C115.343 20.3301 116.551 21.1721 116.551 23.1464V31.189H120.002V22.2754C120.002 18.9655 117.644 17.0783 114.998 17.0783Z" fill="black"/>
<path d="M130.255 20.5624H127.293V14.1748H130.255C132.613 14.1748 133.85 15.4524 133.85 17.3686C133.85 19.2849 132.613 20.5624 130.255 20.5624ZM123.842 31.189H127.293V23.8723H130.686C134.684 23.8723 137.358 21.085 137.358 17.3686C137.358 13.6522 134.684 10.8649 130.686 10.8649H123.842V31.189Z" fill="black"/>
<path d="M145.077 28.6339C144.013 28.6339 142.604 28.3146 142.604 26.8628C142.604 25.3821 144.071 24.9175 145.135 24.9175C147.004 24.9175 148.241 25.6144 148.241 25.6144V27.037C148.241 27.037 147.148 28.6339 145.077 28.6339ZM145.48 17.0783C142.633 17.0783 140.102 18.3268 140.102 18.3268L141.224 21.2011C141.224 21.2011 143.323 20.1849 145.307 20.1849C146.515 20.1849 148.241 20.7656 148.241 22.5658V23.3497C148.241 23.3497 146.946 22.3625 144.444 22.3625C141.482 22.3625 139.095 24.2788 139.095 26.9209C139.095 29.8534 141.454 31.5374 144.013 31.5374C147.09 31.5374 148.499 29.4469 148.499 29.4469V31.189H151.692V22.2174C151.692 19.0816 149.391 17.0783 145.48 17.0783Z" fill="black"/>
<path d="M155.549 31.189H159V9.23901H155.549V31.189Z" fill="black"/>
<path d="M8.69168 16.819L28.5634 5.33402L21.6724 1.32763C20.4438 0.366094 18.6275 0.152417 17.1852 1.00711L2.54855 9.44724C1.05283 10.0348 0.037883 11.4771 0.037883 13.1865V30.1202C-0.175791 31.6693 0.518648 33.3253 2.01437 34.18L8.74509 38.0795V16.819H8.69168Z" fill="#BA00FF"/>
<path d="M36.2555 9.82119L28.5099 5.38745L8.63818 16.8724V38.133L16.5441 42.6736C17.2386 43.2078 18.1467 43.5283 19.0014 43.5283C19.6958 43.5283 20.3903 43.368 20.9779 42.9941L35.6145 34.554C37.1102 33.9664 38.1252 32.5241 38.1252 30.8147V13.9344C38.4457 12.2784 37.6978 10.6225 36.2555 9.82119Z" fill="#00FFB0"/>
<path d="M20.7641 7.41725C20.5504 6.9899 20.2299 6.61597 19.6423 6.29545C17.7727 5.22708 14.4073 5.38734 12.1637 6.7228C9.92014 8.00485 9.65305 9.92791 11.5761 10.9963C12.1637 11.3168 12.8582 11.5305 13.606 11.6373C13.8197 11.6373 14.0334 11.6907 14.1936 11.6907L18.2534 12.0647L19.8026 11.1565L20.0697 10.9963L21.6188 10.0882L20.8709 7.79117C20.8709 7.63092 20.8175 7.52408 20.7641 7.41725Z" fill="#00FFB0"/>
<path d="M10.9888 31.9363C11.4696 32.4171 12.0572 32.7376 12.6448 32.8979C14.6747 33.4855 16.2772 32.0432 16.2772 29.5859C16.2772 27.1821 14.6213 24.7248 12.5914 24.0838C12.0038 23.9236 11.4161 23.9236 10.9354 24.0838C10.8285 24.1372 10.6683 24.1907 10.5614 24.2441L8.05078 25.259V26.9684V27.2355V28.9449L10.6149 31.509C10.7217 31.7227 10.882 31.8295 10.9888 31.9363Z" fill="#BA00FF"/>
<path d="M169.256 22.144H170.76V28H172.68V22.144H174.536V20.416H172.68V18.656C172.68 17.712 173.304 17.504 173.672 17.504C174.152 17.504 174.44 17.728 174.44 17.728L175.16 16.112C175.16 16.112 174.536 15.712 173.48 15.712C172.248 15.712 170.76 16.448 170.76 18.56V20.416H169.256V22.144ZM179.246 20.224C176.99 20.224 175.198 21.968 175.198 24.208C175.198 26.432 176.99 28.192 179.246 28.192C181.502 28.192 183.294 26.432 183.294 24.208C183.294 21.968 181.502 20.224 179.246 20.224ZM179.246 26.4C177.95 26.4 177.15 25.392 177.15 24.208C177.15 23.024 177.95 22.016 179.246 22.016C180.542 22.016 181.342 23.024 181.342 24.208C181.342 25.392 180.542 26.4 179.246 26.4ZM188.582 20.224C187.174 20.224 186.518 21.52 186.518 21.52V20.416H184.694V28H186.614V23.04C186.614 23.04 187.142 22.016 188.31 22.016C188.87 22.016 189.222 22.192 189.222 22.192L189.894 20.464C189.894 20.464 189.27 20.224 188.582 20.224ZM194.721 28H196.657L197.681 25.344H202.417L203.441 28H205.377L201.025 16.8H199.073L194.721 28ZM200.049 19.216L201.729 23.584H198.369L200.049 19.216ZM213.677 15.904H211.757V21.216C211.757 21.216 211.053 20.224 209.613 20.224C207.645 20.224 205.917 21.872 205.917 24.208C205.917 26.544 207.645 28.192 209.613 28.192C211.245 28.192 211.901 27.008 211.901 27.008V28H213.677V15.904ZM211.757 25.344C211.757 25.344 211.213 26.4 209.949 26.4C208.653 26.4 207.869 25.456 207.869 24.208C207.869 22.96 208.653 22.016 209.949 22.016C211.213 22.016 211.757 23.072 211.757 23.072V25.344ZM224.619 20.224C222.843 20.224 222.203 21.552 222.203 21.552C222.203 21.552 221.675 20.224 219.851 20.224C218.299 20.224 217.611 21.52 217.611 21.52V20.416H215.819V28H217.739V22.992C217.739 22.992 218.219 22.016 219.227 22.016C220.187 22.016 220.587 22.576 220.587 23.616V28H222.507V22.992C222.507 22.992 222.987 22.016 223.995 22.016C224.955 22.016 225.355 22.576 225.355 23.616V28H227.275V23.12C227.275 21.296 226.155 20.224 224.619 20.224ZM229.498 28H231.418V20.416H229.498V28ZM229.194 17.968C229.194 18.672 229.754 19.232 230.458 19.232C231.162 19.232 231.722 18.672 231.722 17.968C231.722 17.264 231.162 16.704 230.458 16.704C229.754 16.704 229.194 17.264 229.194 17.968ZM237.712 20.224C236.112 20.224 235.44 21.52 235.44 21.52V20.416H233.648V28H235.568V22.992C235.568 22.992 236.08 22.016 237.072 22.016C237.904 22.016 238.576 22.48 238.576 23.568V28H240.496V23.088C240.496 21.264 239.184 20.224 237.712 20.224ZM242.717 28H244.637V20.416H242.717V28ZM242.413 17.968C242.413 18.672 242.973 19.232 243.677 19.232C244.381 19.232 244.941 18.672 244.941 17.968C244.941 17.264 244.381 16.704 243.677 16.704C242.973 16.704 242.413 17.264 242.413 17.968ZM246.386 26.816C246.386 26.816 247.586 28.192 249.81 28.192C251.746 28.192 253.122 27.152 253.122 25.856C253.122 24.288 252.05 23.792 250.546 23.472C249.266 23.2 248.754 23.088 248.754 22.624C248.754 22.16 249.41 21.904 250.13 21.904C251.154 21.904 252.018 22.56 252.018 22.56L252.978 21.152C252.978 21.152 251.842 20.224 250.13 20.224C248.05 20.224 246.866 21.408 246.866 22.592C246.866 24.032 248.178 24.672 249.682 24.992C250.834 25.232 251.186 25.328 251.186 25.824C251.186 26.288 250.53 26.512 249.746 26.512C248.466 26.512 247.458 25.424 247.458 25.424L246.386 26.816ZM253.993 22.144H255.481V25.504C255.481 27.12 256.601 28.192 258.073 28.192C259.177 28.192 259.897 27.696 259.897 27.696L259.193 26.128C259.193 26.128 258.825 26.4 258.393 26.4C257.881 26.4 257.401 26.128 257.401 25.2V22.144H259.689V20.416H257.401V18.16H255.481V20.416H253.993V22.144ZM265.145 20.224C263.737 20.224 263.081 21.52 263.081 21.52V20.416H261.257V28H263.177V23.04C263.177 23.04 263.705 22.016 264.873 22.016C265.433 22.016 265.785 22.192 265.785 22.192L266.457 20.464C266.457 20.464 265.833 20.224 265.145 20.224ZM270.233 26.592C269.641 26.592 268.857 26.416 268.857 25.616C268.857 24.8 269.673 24.544 270.265 24.544C271.305 24.544 271.993 24.928 271.993 24.928V25.712C271.993 25.712 271.385 26.592 270.233 26.592ZM270.457 20.224C268.873 20.224 267.465 20.912 267.465 20.912L268.089 22.496C268.089 22.496 269.257 21.936 270.361 21.936C271.033 21.936 271.993 22.256 271.993 23.248V23.68C271.993 23.68 271.273 23.136 269.881 23.136C268.233 23.136 266.905 24.192 266.905 25.648C266.905 27.264 268.217 28.192 269.641 28.192C271.353 28.192 272.137 27.04 272.137 27.04V28H273.913V23.056C273.913 21.328 272.633 20.224 270.457 20.224ZM275.227 22.144H276.715V25.504C276.715 27.12 277.835 28.192 279.307 28.192C280.411 28.192 281.131 27.696 281.131 27.696L280.427 26.128C280.427 26.128 280.059 26.4 279.627 26.4C279.115 26.4 278.635 26.128 278.635 25.2V22.144H280.923V20.416H278.635V18.16H276.715V20.416H275.227V22.144ZM286.027 20.224C283.771 20.224 281.979 21.968 281.979 24.208C281.979 26.432 283.771 28.192 286.027 28.192C288.283 28.192 290.075 26.432 290.075 24.208C290.075 21.968 288.283 20.224 286.027 20.224ZM286.027 26.4C284.731 26.4 283.931 25.392 283.931 24.208C283.931 23.024 284.731 22.016 286.027 22.016C287.323 22.016 288.123 23.024 288.123 24.208C288.123 25.392 287.323 26.4 286.027 26.4ZM295.364 20.224C293.956 20.224 293.3 21.52 293.3 21.52V20.416H291.476V28H293.396V23.04C293.396 23.04 293.924 22.016 295.092 22.016C295.652 22.016 296.004 22.192 296.004 22.192L296.676 20.464C296.676 20.464 296.052 20.224 295.364 20.224Z" fill="black"/>
</svg>
